<svg xmlns="http://www.w3.org/2000/svg" width="1487" height="344" viewBox="0 -60 743.5 172">
  <title>让内容 被看见。</title>
  <!-- Fixed outlines from the desktop Songti SC Black, with its 0.025em tracking and 0.26em phrase gap. -->
  <g fill="#fff">
  <path d="M65.80 43.10L75.20 43.10Q77.90 37.60 78.90 36.10Q79.90 34.60 80.60 34.60Q81.90 34.60 87.45 39.15Q93.00 43.70 93.00 45.05Q93.00 46.40 90.50 46.40L65.80 46.40L65.80 93.60L78.40 93.60Q81.30 87.90 82.50 86.25Q83.70 84.60 84.40 84.60Q85.70 84.60 91.30 89.55Q96.90 94.50 96.90 95.70Q96.90 96.90 94.30 96.90L36.90 96.90Q34.90 96.90 33.30 98.00L30.70 93.30Q33.10 93.60 35.70 93.60L53.00 93.60L53.00 19.00Q53.00 14.00 52.80 10.10Q58.30 10.60 62.60 11.40Q66.90 12.20 67.55 12.80Q68.20 13.40 68.20 14.00Q68.20 15.40 65.80 16.30ZM12.20 13.10Q15.10 13.10 21.00 14.65Q26.90 16.20 29.45 18.65Q32.00 21.10 32.00 24.70Q32.00 28.30 30.10 30.25Q28.20 32.20 25.55 32.20Q22.90 32.20 21.50 31.25Q20.10 30.30 19.60 29.05Q19.10 27.80 19.10 24.90Q19.10 20.50 17.90 18.45Q16.70 16.40 14.00 15.10Q11.30 13.80 11.30 13.45Q11.30 13.10 12.20 13.10ZM29.60 80.00Q35.10 76.70 40.20 73.90Q45.30 71.10 45.70 71.10Q46.10 71.10 46.10 71.30Q46.10 71.80 44.90 73.00Q40.80 76.80 33.95 85.05Q27.10 93.30 23.40 98.40Q22.60 99.50 22.20 99.50Q21.80 99.50 21.35 98.95Q20.90 98.40 19.05 95.40Q17.20 92.40 15.70 89.60Q14.20 86.80 14.20 86.10Q14.20 85.40 14.90 85.00Q16.60 84.00 17.25 82.80Q17.90 81.60 17.90 78.80L17.90 47.10L8.40 47.10Q6.40 47.10 4.80 48.20L2.20 43.50Q4.60 43.80 7.20 43.80L16.70 43.80Q18.40 40.70 19.40 39.40Q20.40 38.10 21.20 38.10Q22.50 38.10 27.95 41.10Q33.40 44.10 33.40 45.40Q33.40 46.70 29.60 48.00Z"/>
<path d="M156.00 50.70Q151.70 70.70 126.40 81.30L126.40 95.50Q126.40 96.30 126.30 96.70Q126.20 97.10 124.20 98.10Q122.20 99.10 118.85 99.70Q115.50 100.30 114.85 100.30Q114.20 100.30 114.20 99.50L114.40 95.10Q114.60 92.20 114.60 88.80L114.60 33.50Q114.60 28.80 114.30 26.40Q119.20 27.70 126.60 31.00L145.50 31.00Q145.70 17.30 145.40 9.10Q150.90 9.40 155.00 9.85Q159.10 10.30 160.25 10.50Q161.40 10.70 162.00 11.25Q162.60 11.80 162.60 12.40Q162.60 13.60 161.15 14.35Q159.70 15.10 159.35 15.90Q159.00 16.70 158.90 20.20Q158.80 23.70 158.20 31.00L176.90 31.00Q178.50 27.70 179.30 26.45Q180.10 25.20 180.90 25.20Q181.70 25.20 185.10 26.95Q188.50 28.70 191.45 30.65Q194.40 32.60 195.10 33.40Q195.80 34.20 195.80 34.90Q195.80 36.70 191.90 37.70L191.90 89.20Q191.90 92.80 191.20 94.90Q190.50 97.00 188.55 98.30Q186.60 99.60 182.85 100.40Q179.10 101.20 177.55 101.20Q176.00 101.20 175.35 100.65Q174.70 100.10 174.50 98.70Q173.90 94.60 171.30 93.05Q168.70 91.50 163.40 90.50Q162.10 90.30 162.10 89.70Q162.10 89.10 164.60 89.10L168.50 89.10Q173.40 89.10 175.50 88.80Q177.60 88.50 178.15 87.75Q178.70 87.00 178.70 85.20L178.70 34.30L158.00 34.30Q157.50 42.20 156.40 49.10Q166.10 52.80 172.10 57.90Q178.10 63.00 178.10 68.30Q178.10 71.80 175.95 73.90Q173.80 76.00 170.30 76.00Q168.70 76.00 167.50 75.25Q166.30 74.50 165.70 73.25Q165.10 72.00 165.10 70.80L165.20 68.80Q165.20 64.70 163.00 60.45Q160.80 56.20 156.00 50.70ZM126.40 80.10Q131.40 76.40 134.90 72.50Q138.40 68.60 140.65 64.00Q142.90 59.40 144.00 54.00Q145.10 48.60 145.20 43.30L145.50 34.30L128.20 34.30Q127.90 35.60 126.40 35.90Z"/>
<path d="M254.50 26.10Q251.00 24.90 251.00 20.70Q251.00 14.60 246.20 11.50Q245.20 10.80 245.20 10.60Q245.20 10.10 249.40 10.10Q257.50 10.10 261.25 12.55Q265.00 15.00 265.00 19.00Q265.00 21.50 263.15 23.45Q261.30 25.40 258.10 26.10L283.90 26.10Q286.30 22.00 287.05 21.10Q287.80 20.20 288.60 20.20Q290.40 20.20 296.90 24.70Q303.40 29.20 303.40 31.70Q303.40 32.80 302.25 33.35Q301.10 33.90 299.35 33.70Q297.60 33.50 296.00 33.50Q288.00 33.50 283.10 37.80Q291.00 41.60 291.00 47.70Q291.00 50.50 289.05 52.55Q287.10 54.60 285.10 54.60Q283.10 54.60 281.55 53.60Q280.00 52.60 279.10 50.80Q275.90 44.50 272.35 41.35Q268.80 38.20 261.60 34.40Q260.00 33.60 260.00 33.30Q260.00 33.00 260.90 33.00Q263.40 33.00 269.90 33.95Q276.40 34.90 281.50 37.10Q283.10 33.30 284.10 29.40L227.70 29.40Q228.10 35.30 225.25 38.70Q222.40 42.10 218.70 42.10Q216.10 42.10 214.40 40.25Q212.70 38.40 212.70 36.20Q212.70 33.20 215.60 31.40Q218.50 29.60 220.15 27.70Q221.80 25.80 222.30 24.15Q222.80 22.50 222.80 20.10Q222.80 19.10 223.25 19.10Q223.70 19.10 225.15 21.70Q226.60 24.30 227.00 26.10ZM237.50 30.50Q243.90 32.80 247.60 34.40Q251.30 36.00 251.85 36.50Q252.40 37.00 252.40 37.50Q252.40 38.70 250.35 38.95Q248.30 39.20 247.40 39.65Q246.50 40.10 245.00 41.30Q236.40 48.10 227.35 52.70Q218.30 57.30 216.40 57.30Q216.10 57.30 216.10 57.10Q216.10 56.80 217.30 55.80Q226.20 48.60 230.00 43.35Q233.80 38.10 237.50 30.50ZM230.00 70.60Q224.60 72.90 217.60 75.30Q210.60 77.70 209.90 77.70Q209.20 77.70 209.20 77.60Q209.20 77.20 211.50 76.00Q224.00 69.20 234.40 60.10Q244.80 51.00 251.20 40.90Q255.30 42.40 260.30 44.50Q265.30 46.60 266.00 47.20Q266.70 47.80 266.70 48.60Q266.70 49.40 265.25 49.80Q263.80 50.20 262.70 50.80Q269.30 56.50 278.90 60.05Q288.50 63.60 303.90 65.60Q305.20 65.80 305.20 66.10Q305.20 66.40 303.20 67.55Q301.20 68.70 299.35 71.05Q297.50 73.40 295.90 77.60Q295.40 78.80 294.50 78.80Q293.00 78.80 284.10 74.30Q284.00 75.30 281.90 76.20L281.90 90.10Q281.90 95.40 282.00 96.90L282.10 99.70Q282.10 101.20 278.90 102.00Q275.70 102.80 272.50 102.80Q269.30 102.80 268.70 102.70Q268.10 102.60 268.10 100.50L268.10 95.70L242.50 95.70L242.50 100.00Q242.50 101.00 241.45 101.60Q240.40 102.20 237.00 102.85Q233.60 103.50 230.70 103.50Q229.60 103.50 229.60 102.70L229.80 98.30Q230.00 95.30 230.00 92.80ZM260.90 51.70Q259.30 52.70 258.50 53.40Q246.70 62.50 234.60 68.40Q238.50 69.60 242.10 71.10L267.60 71.10Q270.20 67.10 270.85 66.80Q271.50 66.50 272.70 66.60Q265.90 60.70 260.90 51.70ZM268.10 92.40L268.10 74.40L244.30 74.40Q243.80 75.30 242.50 75.80L242.50 92.40Z"/>
<path d="M397.50 30.50L397.50 22.30Q397.50 16.00 397.10 11.20Q399.80 11.10 405.75 11.65Q411.70 12.20 411.70 13.80Q411.70 15.00 408.70 16.10L408.70 30.50L415.00 30.50Q417.80 24.90 418.95 24.90Q420.10 24.90 426.05 29.40Q432.00 33.90 432.00 35.70Q432.00 37.50 428.20 37.60Q424.40 37.70 421.25 39.35Q418.10 41.00 415.40 44.70Q414.80 45.50 414.55 45.50Q414.30 45.50 414.30 45.15Q414.30 44.80 414.40 44.30Q416.00 38.00 416.60 33.80L408.70 33.80L408.70 54.20L410.80 54.20Q412.30 51.70 413.20 50.60Q414.10 49.50 414.70 49.50Q415.70 49.50 420.45 51.90Q425.20 54.30 426.45 55.45Q427.70 56.60 427.70 57.50Q427.70 59.00 425.40 59.40Q424.30 59.60 423.80 60.20Q423.30 60.80 422.40 63.00Q417.00 75.70 411.70 82.40Q420.00 88.90 431.90 92.50Q433.40 92.90 433.40 93.40Q433.40 93.90 431.40 94.50Q426.90 95.80 422.70 102.10Q422.10 103.00 421.10 103.00Q419.20 103.00 412.70 98.00Q406.20 93.00 403.90 90.30Q396.40 96.30 385.80 99.10Q375.20 101.90 371.50 101.90Q370.40 101.90 370.40 101.45Q370.40 101.00 372.60 100.20Q390.10 93.70 399.10 84.00Q392.50 73.70 392.00 57.50L389.50 57.50Q389.00 73.10 384.40 82.05Q379.80 91.00 371.70 96.60Q363.60 102.20 362.30 102.20Q361.90 102.20 361.90 101.85Q361.90 101.50 363.10 100.50Q374.00 91.30 376.50 79.90Q379.00 68.50 379.00 57.80L379.00 54.30Q378.40 54.60 377.70 54.70Q372.10 56.30 360.10 62.00L360.10 62.20Q375.80 65.50 375.80 71.40Q375.80 73.90 373.95 75.65Q372.10 77.40 369.60 77.40Q365.80 77.40 365.50 72.50Q365.20 67.10 360.10 63.60L360.10 98.40Q360.10 99.50 359.40 99.90Q358.70 100.30 355.35 101.05Q352.00 101.80 350.00 101.80Q349.20 101.80 349.20 100.80L349.40 96.70Q349.50 92.50 349.50 87.50L349.50 60.60Q338.90 67.50 337.00 67.50Q336.30 67.50 336.30 66.75Q336.30 66.00 337.70 64.90Q344.30 60.10 349.50 53.70Q349.50 48.30 349.30 44.30Q352.00 44.70 355.20 45.70Q357.90 41.30 360.00 36.10L344.50 36.10Q341.80 36.10 340.30 36.80L338.50 32.30Q340.60 32.80 343.50 32.80L362.00 32.80Q364.70 28.30 365.90 28.30Q366.40 28.30 368.40 29.45Q370.40 30.60 373.10 32.45Q375.80 34.30 376.20 34.75Q376.60 35.20 376.60 35.70Q376.60 36.80 375.05 37.10Q373.50 37.40 372.80 38.05Q372.10 38.70 370.30 41.20Q366.00 47.00 360.10 52.30L360.10 59.30Q364.60 55.20 369.70 45.60Q372.10 47.10 375.55 49.80Q379.00 52.50 379.00 52.70Q379.20 36.90 379.00 25.30Q385.90 28.00 390.30 30.50ZM397.50 54.20L397.50 33.80L390.50 33.80Q390.20 34.40 390.00 38.00L389.50 54.20ZM404.90 76.00Q409.40 68.30 411.30 57.50L394.40 57.50Q398.10 68.30 404.90 76.00ZM347.90 12.20Q356.80 12.20 361.45 14.75Q366.10 17.30 366.10 21.60Q366.10 24.50 363.90 26.70Q361.70 28.90 359.50 28.90Q357.30 28.90 355.85 27.40Q354.40 25.90 354.10 22.70Q353.80 19.50 352.25 17.25Q350.70 15.00 347.10 13.30Q346.10 12.80 346.10 12.50Q346.10 12.20 347.90 12.20Z"/>
<path d="M477.10 23.10L446.80 24.60Q445.20 24.60 445.20 24.20Q445.20 23.80 446.80 23.60Q470.10 20.20 488.05 16.30Q506.00 12.40 513.20 9.00Q516.20 11.80 519.45 15.40Q522.70 19.00 523.35 19.95Q524.00 20.90 524.00 21.60Q524.00 22.30 523.25 22.30Q522.50 22.30 521.85 22.10Q521.20 21.90 517.40 21.65Q513.60 21.40 510.55 21.40Q507.50 21.40 494.40 22.20Q493.60 22.80 492.20 23.40Q490.40 28.00 488.60 32.10L505.10 32.10Q507.50 27.50 508.70 25.85Q509.90 24.20 510.60 24.20Q511.90 24.20 517.60 28.70Q523.30 33.20 523.30 34.30Q523.30 35.40 521.30 35.40L487.00 35.40Q484.80 40.00 482.10 44.40L514.50 44.40Q519.10 37.90 519.70 37.10Q520.30 36.30 521.10 36.30Q522.60 36.30 528.70 40.80Q534.80 45.30 534.80 46.50Q534.80 47.70 532.80 47.70L479.90 47.70Q477.40 51.40 474.20 55.00Q475.50 55.10 477.10 56.00L507.40 56.00Q509.20 52.40 509.80 51.25Q510.40 50.10 511.10 50.10Q511.80 50.10 514.20 51.35Q516.60 52.60 520.10 54.75Q523.60 56.90 524.40 57.65Q525.20 58.40 525.20 59.00Q525.20 60.40 522.10 61.80L522.10 87.90Q522.10 92.60 522.20 94.40L522.30 97.70Q522.30 98.50 521.90 98.95Q521.50 99.40 519.40 100.25Q517.30 101.10 514.00 101.80Q510.70 102.50 510.05 102.50Q509.40 102.50 509.40 100.80L509.40 94.40L476.50 94.40L476.50 98.80Q476.50 99.70 476.25 100.00Q476.00 100.30 474.25 101.00Q472.50 101.70 469.55 102.30Q466.60 102.90 465.50 102.90Q464.90 102.90 464.90 102.10L465.10 98.10Q465.30 93.60 465.30 89.50L465.30 63.40Q459.90 67.90 450.30 73.40Q440.70 78.90 439.60 78.90Q439.00 78.90 439.00 78.30Q439.00 77.70 440.00 77.00Q457.30 65.40 467.60 47.70L446.40 47.70Q444.40 47.70 442.80 48.80L440.20 44.10Q442.60 44.40 445.20 44.40L469.40 44.40Q471.50 40.70 473.50 35.40L453.30 35.40Q451.30 35.40 449.70 36.50L447.10 31.80Q449.50 32.10 452.10 32.10L474.70 32.10Q475.90 28.70 477.10 23.10ZM476.50 67.20L509.40 67.20L509.40 59.30L478.00 59.30Q477.60 60.20 476.50 60.60ZM509.40 70.50L476.50 70.50L476.50 79.00L509.40 79.00ZM509.40 91.10L509.40 82.30L476.50 82.30L476.50 91.10Z"/>
<path d="M570.50 16.40L602.50 16.40Q604.90 11.70 605.55 10.85Q606.20 10.00 607.00 10.00Q608.30 10.00 614.70 14.15Q621.10 18.30 621.10 19.55Q621.10 20.80 617.30 22.40L617.30 57.10Q617.30 61.80 617.40 63.60L617.50 67.00Q617.50 67.90 616.50 68.65Q615.50 69.40 612.90 70.10Q610.30 70.80 608.10 70.80Q605.90 70.80 605.10 69.90Q604.30 69.00 604.30 67.90L604.30 19.70L572.00 19.70Q571.50 20.50 570.30 21.10L570.30 65.90Q570.30 69.50 567.40 70.80Q564.50 72.10 561.00 72.10Q560.00 72.10 558.90 71.40Q557.80 70.70 557.80 70.00Q557.80 69.90 558.00 65.75Q558.20 61.60 558.20 56.30L558.20 22.10Q558.20 16.60 557.80 11.70Q564.40 13.60 570.50 16.40ZM588.10 68.50Q584.20 79.60 576.25 86.30Q568.30 93.00 556.25 97.30Q544.20 101.60 542.20 101.60Q541.30 101.60 541.30 101.05Q541.30 100.50 542.70 99.90Q558.40 93.50 566.10 86.50Q573.80 79.50 577.15 69.05Q580.50 58.60 580.50 38.70Q580.50 33.80 580.30 27.70Q585.70 28.20 590.20 29.00Q594.70 29.80 595.50 30.40Q596.30 31.00 596.30 31.85Q596.30 32.70 594.90 33.30Q593.60 33.90 593.40 37.10Q592.30 50.10 591.20 56.00Q597.90 56.70 599.60 57.25Q601.30 57.80 601.30 58.80Q601.30 59.80 599.80 60.80L599.80 84.30Q599.80 85.50 600.35 86.45Q600.90 87.40 601.70 87.85Q602.50 88.30 605.40 88.55Q608.30 88.80 611.20 88.80Q619.20 88.80 621.20 87.20Q623.20 85.60 624.95 81.30Q626.70 77.00 628.70 69.40Q629.00 68.30 629.60 68.30Q630.40 68.30 630.10 69.70Q629.40 74.00 629.40 77.40Q629.40 86.90 633.90 88.20Q636.00 88.80 636.00 90.30Q636.00 91.80 633.90 94.60Q631.80 97.40 626.35 98.40Q620.90 99.40 611.20 99.40Q601.50 99.40 597.00 98.70Q592.50 98.00 590.30 95.50Q588.10 93.00 588.10 87.90Z"/>
<path d="M666.20 67.10Q671.90 67.10 675.90 71.10Q679.90 75.10 679.90 80.80Q679.90 86.50 675.90 90.50Q671.90 94.50 666.20 94.50Q660.50 94.50 656.50 90.50Q652.50 86.50 652.50 80.80Q652.50 75.10 656.50 71.10Q660.50 67.10 666.20 67.10ZM666.20 86.80Q668.70 86.80 670.45 85.05Q672.20 83.30 672.20 80.80Q672.20 78.30 670.40 76.55Q668.60 74.80 666.20 74.80Q663.80 74.80 662.00 76.60Q660.20 78.40 660.20 80.80Q660.20 83.20 662.00 85.00Q663.80 86.80 666.20 86.80Z"/>
  </g>
  <g fill="#fff" opacity=".82">
  <path d="M42.60 -55.50Q32.30 -46.70 32.30 -42.50Q32.30 -41.20 32.70 -40.75Q33.10 -40.30 34.10 -40.30L36.10 -40.30Q41.00 -40.30 41.00 -32.60Q41.00 -29.70 39.05 -27.70Q37.10 -25.70 34.10 -25.70Q29.10 -25.70 26.80 -28.10Q24.50 -30.50 24.50 -35.80Q24.50 -43.20 28.55 -48.35Q32.60 -53.50 41.10 -57.90ZM22.90 -55.50Q12.60 -46.70 12.60 -42.50Q12.60 -41.20 13.00 -40.75Q13.40 -40.30 14.40 -40.30L16.40 -40.30Q21.30 -40.30 21.30 -32.60Q21.30 -29.70 19.35 -27.70Q17.40 -25.70 14.40 -25.70Q9.40 -25.70 7.10 -28.10Q4.80 -30.50 4.80 -35.80Q4.80 -43.20 8.85 -48.35Q12.90 -53.50 21.40 -57.90Z"/>
  </g>
</svg>